<?xml version="1.0" standalone="no"?>
<!DOCTYPE svg PUBLIC "-//W3C//DTD SVG 20010904//EN"
 "http://www.w3.org/TR/2001/REC-SVG-20010904/DTD/svg10.dtd">
<svg version="1.0" xmlns="http://www.w3.org/2000/svg"
 width="640.000000pt" height="640.000000pt" viewBox="0 0 640.000000 640.000000"
 preserveAspectRatio="xMidYMid meet">

<g transform="translate(0.000000,640.000000) scale(0.100000,-0.100000)"
fill="white" stroke="none">
<path d="M0 3200 l0 -3200 1365 0 1365 0 0 25 c0 23 -3 25 -50 25 -47 0 -50 2
-50 25 0 23 -3 25 -50 25 -47 0 -50 2 -50 25 0 20 5 25 25 25 20 0 25 5 25 25
0 20 5 25 25 25 20 0 25 5 25 25 0 20 5 25 25 25 20 0 25 5 25 25 0 23 3 25
50 25 47 0 50 2 50 25 0 20 5 25 25 25 20 0 25 5 25 25 0 20 5 25 25 25 20 0
25 5 25 25 0 20 5 25 25 25 20 0 25 5 25 25 0 20 5 25 25 25 20 0 25 5 25 25
0 20 5 25 25 25 20 0 25 5 25 25 0 20 5 25 25 25 20 0 25 5 25 25 0 20 5 25
25 25 23 0 25 3 25 50 0 47 -2 50 -25 50 -20 0 -25 5 -25 25 0 20 -5 25 -25
25 -20 0 -25 5 -25 25 0 20 -5 25 -25 25 -20 0 -25 -5 -25 -25 0 -20 -5 -25
-25 -25 -23 0 -25 -3 -25 -50 0 -47 -2 -50 -25 -50 -20 0 -25 -5 -25 -25 0
-20 -5 -25 -25 -25 -20 0 -25 -5 -25 -25 0 -20 -5 -25 -25 -25 -20 0 -25 -5
-25 -25 0 -20 -5 -25 -25 -25 -20 0 -25 -5 -25 -25 0 -20 -5 -25 -25 -25 -20
0 -25 -5 -25 -25 0 -20 -5 -25 -25 -25 -20 0 -25 -5 -25 -25 0 -20 -5 -25 -25
-25 -20 0 -25 -5 -25 -25 0 -20 -5 -25 -25 -25 -20 0 -25 -5 -25 -25 0 -20 -5
-25 -25 -25 -20 0 -25 -5 -25 -25 0 -20 -5 -25 -25 -25 -20 0 -25 -5 -25 -25
0 -23 -3 -25 -50 -25 l-50 0 0 50 c0 47 2 50 25 50 20 0 25 5 25 25 0 20 5 25
25 25 20 0 25 5 25 25 0 20 5 25 25 25 20 0 25 5 25 25 0 23 3 25 50 25 47 0
50 2 50 25 0 20 5 25 25 25 20 0 25 5 25 25 0 20 -5 25 -25 25 -20 0 -25 5
-25 25 0 20 -5 25 -25 25 -20 0 -25 5 -25 25 0 20 -5 25 -25 25 -20 0 -25 5
-25 25 0 20 -5 25 -25 25 -20 0 -25 5 -25 25 0 20 -5 25 -25 25 -20 0 -25 5
-25 25 0 23 3 25 50 25 47 0 50 2 50 25 0 20 -5 25 -25 25 -20 0 -25 5 -25 25
0 20 -5 25 -25 25 -20 0 -25 5 -25 25 0 20 -5 25 -25 25 -20 0 -25 5 -25 25 0
20 -5 25 -25 25 -23 0 -25 3 -25 50 0 47 -2 50 -25 50 -20 0 -25 5 -25 25 0
20 -5 25 -25 25 -23 0 -25 3 -25 50 0 47 2 50 25 50 20 0 25 -5 25 -25 0 -24
2 -25 75 -25 73 0 75 1 75 25 0 20 -5 25 -25 25 -20 0 -25 5 -25 25 0 20 -5
25 -25 25 -23 0 -25 3 -25 50 0 47 -2 50 -25 50 -20 0 -25 5 -25 25 0 24 2 25
75 25 73 0 75 1 75 25 0 23 -3 25 -50 25 -47 0 -50 2 -50 25 0 20 -5 25 -25
25 -23 0 -25 3 -25 50 0 47 2 50 25 50 24 0 25 2 25 75 0 73 1 75 25 75 23 0
25 -3 25 -50 0 -47 2 -50 25 -50 20 0 25 -5 25 -25 0 -20 5 -25 25 -25 23 0
25 -3 25 -50 0 -47 2 -50 25 -50 20 0 25 -5 25 -25 0 -20 5 -25 25 -25 20 0
25 -5 25 -25 0 -20 5 -25 25 -25 20 0 25 -5 25 -25 0 -20 5 -25 25 -25 20 0
25 -5 25 -25 0 -20 5 -25 25 -25 20 0 25 -5 25 -25 0 -20 5 -25 25 -25 20 0
25 -5 25 -25 0 -20 5 -25 25 -25 20 0 25 -5 25 -25 0 -20 5 -25 25 -25 20 0
25 -5 25 -25 0 -20 5 -25 25 -25 20 0 25 -5 25 -25 0 -20 5 -25 25 -25 20 0
25 5 25 25 0 20 5 25 25 25 20 0 25 5 25 25 0 20 5 25 25 25 20 0 25 5 25 25
0 20 5 25 25 25 20 0 25 5 25 25 0 20 -5 25 -25 25 -20 0 -25 5 -25 25 0 20
-5 25 -25 25 -20 0 -25 5 -25 25 0 20 -5 25 -25 25 -20 0 -25 5 -25 25 0 20
-5 25 -25 25 -20 0 -25 5 -25 25 0 20 -5 25 -25 25 -20 0 -25 5 -25 25 0 20
-5 25 -25 25 -20 0 -25 5 -25 25 0 20 -5 25 -25 25 -20 0 -25 5 -25 25 0 20
-5 25 -25 25 -20 0 -25 5 -25 25 0 20 -5 25 -25 25 -20 0 -25 5 -25 25 0 20
-5 25 -25 25 -20 0 -25 5 -25 25 0 20 -5 25 -25 25 -20 0 -25 5 -25 25 0 20
-5 25 -25 25 -23 0 -25 3 -25 50 0 47 -2 50 -25 50 -20 0 -25 5 -25 25 0 20
-5 25 -25 25 -23 0 -25 3 -25 50 0 47 -2 50 -25 50 -20 0 -25 5 -25 25 0 20
-5 25 -25 25 -23 0 -25 3 -25 50 0 47 -2 50 -25 50 -24 0 -25 2 -25 75 0 73
-1 75 -25 75 l-25 0 0 150 0 150 -100 0 -100 0 0 -125 0 -125 25 0 25 0 0
-150 0 -150 25 0 c24 0 25 -2 25 -75 l0 -75 -50 0 c-47 0 -50 -2 -50 -25 0
-20 -5 -25 -25 -25 -20 0 -25 -5 -25 -25 0 -20 -5 -25 -25 -25 -20 0 -25 5
-25 25 0 20 -5 25 -25 25 -20 0 -25 -5 -25 -25 0 -20 -5 -25 -25 -25 -20 0
-25 -5 -25 -25 0 -20 -5 -25 -25 -25 -23 0 -25 -3 -25 -50 0 -43 -3 -50 -20
-50 -15 0 -20 7 -20 25 0 21 -5 25 -30 25 l-30 0 0 175 0 175 -25 0 c-23 0
-25 3 -25 50 0 47 -2 50 -25 50 -23 0 -25 3 -25 50 0 47 2 50 25 50 23 0 25 3
25 50 0 47 2 50 25 50 20 0 25 5 25 25 0 20 5 25 25 25 20 0 25 5 25 25 0 23
-3 25 -50 25 -47 0 -50 -2 -50 -25 0 -20 -5 -25 -25 -25 -24 0 -25 2 -25 75 0
73 -1 75 -25 75 -23 0 -25 -3 -25 -50 0 -47 -2 -50 -25 -50 -20 0 -25 -5 -25
-25 0 -20 -5 -25 -25 -25 -20 0 -25 -5 -25 -25 0 -20 -5 -25 -25 -25 -20 0
-25 -5 -25 -25 0 -24 -2 -25 -75 -25 -73 0 -75 1 -75 25 0 20 -5 25 -25 25
-20 0 -25 5 -25 25 0 20 -5 25 -25 25 -23 0 -25 -3 -25 -50 0 -47 2 -50 25
-50 20 0 25 -5 25 -25 0 -23 3 -25 50 -25 47 0 50 -2 50 -25 0 -23 3 -25 50
-25 47 0 50 -2 50 -25 l0 -25 100 0 100 0 0 -75 c0 -73 1 -75 25 -75 23 0 25
-3 25 -50 0 -47 -2 -50 -25 -50 -20 0 -25 -5 -25 -25 0 -20 -5 -25 -25 -25
l-25 0 0 -125 0 -125 -25 0 c-20 0 -25 -5 -25 -25 0 -20 -5 -25 -25 -25 -20 0
-25 -5 -25 -25 0 -20 -5 -25 -25 -25 -20 0 -25 -5 -25 -25 0 -23 3 -25 50 -25
47 0 50 2 50 25 0 20 5 25 25 25 20 0 25 -5 25 -25 0 -20 5 -25 25 -25 20 0
25 -5 25 -25 0 -20 -5 -25 -25 -25 -23 0 -25 -3 -25 -50 0 -47 -2 -50 -25 -50
-23 0 -25 -3 -25 -50 0 -47 -2 -50 -25 -50 -20 0 -25 -5 -25 -25 0 -24 2 -25
75 -25 73 0 75 -1 75 -25 0 -23 -3 -25 -50 -25 -47 0 -50 -2 -50 -25 0 -20 -5
-25 -25 -25 -20 0 -25 -5 -25 -25 0 -24 -2 -25 -75 -25 -73 0 -75 -1 -75 -25
l0 -25 -125 0 -125 0 0 50 0 50 -50 0 c-47 0 -50 2 -50 25 0 20 -5 25 -25 25
-20 0 -25 5 -25 25 0 20 -5 25 -25 25 -20 0 -25 5 -25 25 0 20 -5 25 -25 25
-20 0 -25 5 -25 25 0 20 -5 25 -25 25 -20 0 -25 5 -25 25 0 20 -5 25 -25 25
-20 0 -25 5 -25 25 0 20 -5 25 -25 25 -23 0 -25 3 -25 50 0 47 -2 50 -25 50
l-25 0 0 150 0 150 25 0 c23 0 25 3 25 50 0 47 2 50 25 50 23 0 25 3 25 50 0
47 2 50 25 50 l25 0 0 125 0 125 25 0 c23 0 25 3 25 50 0 47 2 50 25 50 20 0
25 5 25 25 0 24 2 25 75 25 73 0 75 1 75 25 0 20 5 25 25 25 24 0 25 2 25 75
0 73 -1 75 -25 75 -20 0 -25 5 -25 25 0 20 5 25 25 25 l25 0 0 125 0 125 75 0
c73 0 75 1 75 25 0 23 -3 25 -50 25 l-50 0 0 50 c0 47 2 50 25 50 20 0 25 5
25 25 0 20 -5 25 -25 25 -20 0 -25 5 -25 25 0 20 5 25 25 25 20 0 25 5 25 25
0 20 -5 25 -25 25 -20 0 -25 5 -25 25 0 20 -5 25 -25 25 -20 0 -25 5 -25 25 0
20 -5 25 -25 25 -23 0 -25 3 -25 50 0 47 -2 50 -25 50 -20 0 -25 5 -25 25 0
20 -5 25 -25 25 -23 0 -25 3 -25 50 0 47 -2 50 -25 50 -23 0 -25 3 -25 50 l0
50 75 0 c73 0 75 -1 75 -25 0 -20 5 -25 25 -25 20 0 25 -5 25 -25 0 -20 5 -25
25 -25 23 0 25 -3 25 -50 0 -47 2 -50 25 -50 20 0 25 -5 25 -25 0 -20 5 -25
25 -25 20 0 25 -5 25 -25 0 -20 5 -25 25 -25 23 0 25 -3 25 -50 0 -47 2 -50
25 -50 20 0 25 -5 25 -25 0 -20 5 -25 25 -25 20 0 25 -5 25 -25 0 -20 5 -25
25 -25 20 0 25 5 25 25 0 20 5 25 25 25 l25 0 0 125 0 125 -25 0 -25 0 0 125
0 125 50 0 c47 0 50 -2 50 -25 0 -20 5 -25 25 -25 23 0 25 -3 25 -50 0 -47 2
-50 25 -50 l25 0 0 -200 0 -200 25 0 c20 0 25 5 25 25 0 16 6 25 15 25 10 0
15 10 15 30 0 25 4 30 25 30 21 0 25 5 25 30 0 28 3 30 35 30 19 0 35 -4 35
-10 0 -5 14 -10 30 -10 25 0 30 4 30 24 0 25 28 36 96 36 29 0 33 3 37 33 2
17 5 -41 5 -130 l2 -163 25 0 25 0 0 225 0 225 -25 0 -25 0 0 100 0 100 25 0
25 0 0 100 0 100 25 0 c23 0 25 3 25 50 0 47 2 50 25 50 23 0 25 3 25 50 0 47
2 50 25 50 24 0 25 -2 25 -75 0 -73 -1 -75 -25 -75 -23 0 -25 -3 -25 -50 0
-47 -2 -50 -25 -50 -20 0 -25 -5 -25 -25 0 -20 5 -25 25 -25 20 0 25 -5 25
-25 0 -20 -5 -25 -25 -25 -20 0 -25 -5 -25 -25 0 -20 5 -25 25 -25 20 0 25 -5
25 -25 0 -21 5 -25 29 -25 25 0 28 3 23 25 -4 22 -1 25 22 25 21 0 26 5 26 25
0 20 5 25 25 25 23 0 25 -3 25 -50 0 -47 -2 -50 -25 -50 -24 0 -25 -2 -25 -75
0 -73 -1 -75 -25 -75 -24 0 -25 -2 -25 -75 0 -73 -1 -75 -25 -75 l-25 0 0
-125 0 -125 25 0 25 0 0 125 0 125 25 0 c24 0 25 2 25 75 0 73 1 75 25 75 25
0 25 -1 25 -80 0 -79 0 -80 -25 -80 l-25 0 0 -170 0 -170 -25 0 c-24 0 -25 -2
-25 -75 0 -73 1 -75 25 -75 20 0 25 -5 25 -25 0 -23 3 -25 50 -25 47 0 50 -2
50 -25 0 -20 -5 -25 -25 -25 -20 0 -25 -5 -25 -25 0 -20 -5 -25 -25 -25 -20 0
-25 -5 -25 -25 0 -20 5 -25 25 -25 20 0 25 -5 25 -25 0 -20 5 -25 25 -25 20 0
25 -5 25 -25 0 -20 -5 -25 -25 -25 -20 0 -25 -5 -25 -25 0 -20 5 -25 25 -25
20 0 25 -5 25 -25 0 -20 5 -25 25 -25 21 0 25 -5 25 -30 0 -25 4 -30 25 -30
18 0 25 -5 25 -20 0 -17 7 -20 45 -20 43 0 45 -1 45 -30 0 -30 1 -30 55 -30
48 0 55 -2 55 -20 0 -17 7 -20 50 -20 47 0 50 -2 50 -25 0 -24 2 -25 75 -25
73 0 75 -1 75 -25 0 -23 3 -25 50 -25 47 0 50 -2 50 -25 l0 -25 225 0 225 0 0
25 0 25 100 0 100 0 0 25 c0 25 1 25 80 25 79 0 80 0 80 25 0 23 4 25 45 25
41 0 45 2 45 25 0 20 5 25 25 25 20 0 25 5 25 25 0 20 5 25 25 25 20 0 25 5
25 25 0 20 5 25 25 25 20 0 25 5 25 25 0 20 5 25 25 25 20 0 25 5 25 25 0 20
5 25 25 25 20 0 25 5 25 25 0 20 5 25 25 25 l25 0 0 -200 0 -200 -25 0 c-23 0
-25 -3 -25 -50 0 -47 -2 -50 -25 -50 -23 0 -25 -3 -25 -50 0 -47 -2 -50 -25
-50 -23 0 -25 -3 -25 -50 0 -47 -2 -50 -25 -50 -23 0 -25 -3 -25 -50 0 -47 -2
-50 -25 -50 -23 0 -25 -3 -25 -50 0 -47 -2 -50 -25 -50 -23 0 -25 -3 -25 -50
0 -47 -2 -50 -25 -50 -20 0 -25 -5 -25 -25 0 -20 -5 -25 -25 -25 -23 0 -25 -3
-25 -50 0 -47 -2 -50 -25 -50 -20 0 -25 -5 -25 -25 0 -20 -5 -25 -25 -25 -20
0 -25 -5 -25 -25 0 -20 -5 -25 -25 -25 -20 0 -25 -5 -25 -25 0 -20 -5 -25 -25
-25 -24 0 -25 -2 -25 -75 0 -73 1 -75 25 -75 20 0 25 -5 25 -25 0 -20 5 -25
25 -25 20 0 25 -5 25 -25 0 -20 5 -25 25 -25 23 0 25 3 25 50 l0 50 50 0 c47
0 50 2 50 25 0 20 5 25 25 25 20 0 25 5 25 25 0 20 5 25 25 25 20 0 25 5 25
25 0 20 5 25 25 25 23 0 25 3 25 50 0 47 2 50 25 50 20 0 25 5 25 25 0 20 5
25 25 25 20 0 25 5 25 25 0 20 5 25 25 25 23 0 25 3 25 50 0 47 2 50 25 50 25
0 25 1 25 85 l0 85 50 0 50 0 0 140 0 140 26 0 25 0 -7 243 c-4 133 -4 268 0
300 7 52 10 57 32 57 22 0 24 4 24 50 0 47 2 50 25 50 20 0 25 5 25 25 l0 25
125 0 125 0 0 -25 c0 -23 3 -25 50 -25 47 0 50 -2 50 -25 0 -20 5 -25 25 -25
20 0 25 -5 25 -25 0 -20 5 -25 25 -25 20 0 25 -5 25 -25 0 -20 5 -25 25 -25
20 0 25 -5 25 -25 0 -20 5 -25 25 -25 20 0 25 -5 25 -25 0 -20 5 -25 25 -25
20 0 25 -5 25 -25 0 -20 5 -25 25 -25 20 0 25 -5 25 -25 0 -20 5 -25 25 -25
23 0 25 -3 25 -50 0 -47 2 -50 25 -50 24 0 25 -2 25 -75 0 -73 1 -75 25 -75
20 0 25 -5 25 -25 0 -20 5 -25 25 -25 20 0 25 -5 25 -25 0 -20 5 -25 25 -25
23 0 25 -3 25 -50 0 -47 2 -50 25 -50 23 0 25 -3 25 -50 0 -47 2 -50 25 -50
23 0 25 -3 25 -50 0 -47 2 -50 25 -50 l25 0 0 -100 0 -100 25 0 c20 0 25 -5
25 -25 0 -20 5 -25 25 -25 23 0 25 -3 25 -50 0 -47 2 -50 25 -50 20 0 25 -5
25 -25 0 -20 5 -25 25 -25 23 0 25 -3 25 -50 0 -47 2 -50 25 -50 20 0 25 -5
25 -25 0 -20 5 -25 25 -25 23 0 25 -3 25 -50 0 -47 2 -50 25 -50 l25 0 0 -100
0 -100 25 0 25 0 0 -125 0 -125 -25 0 c-23 0 -25 -3 -25 -50 l0 -50 -75 0
c-73 0 -75 1 -75 25 0 20 -5 25 -25 25 -23 0 -25 3 -25 50 l0 50 -75 0 -75 0
0 50 c0 47 -2 50 -25 50 -20 0 -25 5 -25 25 0 23 -3 25 -50 25 -47 0 -50 2
-50 25 0 20 -5 25 -25 25 -20 0 -25 5 -25 25 0 23 -3 25 -50 25 -47 0 -50 2
-50 25 0 20 -5 25 -25 25 -20 0 -25 5 -25 25 0 23 3 25 50 25 47 0 50 2 50 25
l0 25 -100 0 -100 0 0 25 c0 20 -5 25 -25 25 -20 0 -25 5 -25 25 0 20 -5 25
-25 25 -23 0 -25 3 -25 50 l0 50 -50 0 c-47 0 -50 2 -50 25 0 20 -5 25 -25 25
-20 0 -25 5 -25 25 0 23 -3 25 -50 25 -47 0 -50 2 -50 25 0 20 -5 25 -25 25
-20 0 -25 5 -25 25 0 20 -5 25 -25 25 -20 0 -25 5 -25 25 0 20 -5 25 -25 25
-20 0 -25 5 -25 25 0 20 -5 25 -24 25 -19 0 -25 -6 -29 -32 -2 -18 -2 -280 1
-582 l5 -549 -78 6 c-43 4 -89 7 -102 7 -18 0 -23 5 -23 25 0 23 -3 25 -50 25
-47 0 -50 2 -50 25 0 23 -3 25 -50 25 -47 0 -50 2 -50 25 0 23 -3 25 -50 25
-47 0 -50 2 -50 25 0 20 -5 25 -25 25 -20 0 -25 5 -25 25 0 20 -5 25 -25 25
-20 0 -25 5 -25 25 0 23 -3 25 -50 25 -47 0 -50 2 -50 25 0 23 -3 25 -50 25
-47 0 -50 -2 -50 -25 0 -20 -5 -25 -25 -25 -23 0 -25 -3 -25 -50 0 -47 2 -50
25 -50 20 0 25 -5 25 -25 0 -20 5 -25 25 -25 20 0 25 -5 25 -25 0 -23 3 -25
50 -25 47 0 50 -2 50 -25 0 -20 5 -25 25 -25 20 0 25 -5 25 -25 0 -23 3 -25
50 -25 47 0 50 -2 50 -25 0 -20 5 -25 25 -25 20 0 25 -5 25 -25 0 -23 3 -25
50 -25 47 0 50 -2 50 -25 0 -23 3 -25 50 -25 47 0 50 -2 50 -25 0 -16 -6 -25
-15 -25 -9 0 -15 -9 -15 -25 0 -14 -4 -25 -10 -25 -5 0 -10 -11 -10 -25 0 -20
-5 -25 -25 -25 -23 0 -25 -3 -25 -50 0 -47 -2 -50 -25 -50 -20 0 -25 -5 -25
-25 0 -20 -5 -25 -25 -25 -20 0 -25 -5 -25 -25 l0 -25 100 0 100 0 0 50 c0 47
2 50 25 50 23 0 25 3 25 50 0 47 2 50 25 50 23 0 25 4 25 45 0 41 2 45 25 45
18 0 25 -5 25 -20 0 -17 7 -20 50 -20 47 0 50 -2 50 -25 0 -23 3 -25 50 -25
l50 0 0 -100 0 -100 825 0 825 0 0 25 c0 23 -3 25 -50 25 -47 0 -50 2 -50 25
0 20 -5 25 -25 25 -20 0 -25 5 -25 25 0 20 -5 25 -25 25 -20 0 -25 5 -25 25 0
23 -3 25 -50 25 -47 0 -50 2 -50 25 0 23 -3 25 -50 25 -47 0 -50 2 -50 25 0
20 -5 25 -25 25 -20 0 -25 -5 -25 -25 0 -20 5 -25 25 -25 20 0 25 -5 25 -25 0
-20 5 -25 25 -25 24 0 25 -2 25 -75 0 -73 -1 -75 -25 -75 -20 0 -25 5 -25 25
0 20 -5 25 -25 25 -20 0 -25 5 -25 25 0 20 -5 25 -25 25 -20 0 -25 5 -25 25 0
23 -3 25 -50 25 -47 0 -50 2 -50 25 0 20 -5 25 -25 25 -24 0 -25 2 -25 75 0
73 -1 75 -25 75 -20 0 -25 5 -25 25 l0 25 100 0 100 0 0 25 c0 23 3 25 50 25
47 0 50 2 50 25 0 20 5 25 25 25 24 0 25 2 25 75 l0 75 50 0 c47 0 50 -2 50
-25 0 -20 5 -25 25 -25 20 0 25 -5 25 -25 0 -23 3 -25 50 -25 47 0 50 -2 50
-25 0 -20 5 -25 25 -25 20 0 25 -5 25 -25 0 -20 5 -25 25 -25 23 0 25 -3 25
-50 0 -47 2 -50 25 -50 l25 0 0 -125 0 -125 25 0 c24 0 25 -2 25 -75 l0 -75
60 0 60 0 0 3200 0 3200 -3200 0 -3200 0 0 -3200z m3030 1475 c0 -20 5 -25 25
-25 20 0 25 5 25 25 l0 25 150 0 150 0 0 -25 c0 -24 2 -25 75 -25 73 0 75 -1
75 -25 0 -23 3 -25 50 -25 47 0 50 -2 50 -25 0 -23 3 -25 50 -25 47 0 50 -2
50 -25 0 -23 3 -25 50 -25 47 0 50 -2 50 -25 0 -20 5 -25 25 -25 20 0 25 -5
25 -25 0 -20 5 -25 25 -25 20 0 25 -5 25 -25 0 -20 5 -25 25 -25 20 0 25 -5
25 -25 0 -20 5 -25 25 -25 20 0 25 -5 25 -25 0 -20 5 -25 25 -25 23 0 25 -3
25 -50 0 -47 2 -50 25 -50 23 0 25 -3 25 -50 0 -47 2 -50 25 -50 24 0 25 -2
25 -75 0 -73 1 -75 25 -75 24 0 25 -2 25 -75 0 -73 1 -75 25 -75 l25 0 0 -350
0 -350 -25 0 c-24 0 -25 -2 -25 -75 0 -73 -1 -75 -25 -75 -24 0 -25 -2 -25
-75 0 -73 -1 -75 -25 -75 -20 0 -25 -5 -25 -25 0 -20 -5 -25 -25 -25 -20 0
-25 -5 -25 -25 0 -20 -5 -25 -25 -25 -20 0 -25 -5 -25 -25 0 -20 -5 -25 -25
-25 -20 0 -25 -5 -25 -25 0 -20 -5 -25 -25 -25 -20 0 -25 -5 -25 -25 0 -20 -5
-25 -25 -25 -20 0 -25 -5 -25 -25 0 -21 -5 -25 -30 -25 -25 0 -30 -4 -30 -25
0 -23 -4 -25 -45 -25 -41 0 -45 -2 -45 -25 0 -25 -1 -25 -80 -25 -79 0 -80 0
-80 -25 l0 -25 -100 0 c-99 0 -100 0 -100 -24 l0 -25 -195 -1 -195 0 0 25 c0
24 -2 25 -75 25 -73 0 -75 1 -75 25 0 20 5 25 25 25 21 0 25 5 25 30 0 25 -4
30 -25 30 -18 0 -25 5 -25 20 0 15 -7 20 -25 20 -20 0 -25 5 -25 25 0 20 5 25
25 25 20 0 25 -5 25 -25 0 -24 2 -25 75 -25 73 0 75 -1 75 -25 l0 -25 250 0
250 0 0 25 c0 23 3 25 50 25 47 0 50 2 50 25 0 23 3 25 50 25 47 0 50 2 50 25
0 23 3 25 50 25 47 0 50 2 50 25 0 20 5 25 25 25 20 0 25 5 25 25 0 20 5 25
25 25 20 0 25 5 25 25 0 20 5 25 25 25 23 0 25 3 25 50 0 46 2 50 24 50 18 0
25 6 28 23 2 14 11 23 26 25 19 3 22 9 22 53 0 46 2 49 25 49 23 0 25 3 25 50
0 47 2 50 25 50 24 0 25 2 25 75 0 73 1 75 25 75 l25 0 0 200 0 200 -25 0 -25
0 0 -195 0 -195 -25 0 -25 0 0 195 0 195 25 0 c23 0 25 3 25 50 0 47 -2 50
-25 50 -20 0 -25 -5 -25 -25 0 -20 -5 -25 -25 -25 -20 0 -25 5 -25 25 0 20 5
25 25 25 23 0 25 3 25 50 0 47 -2 50 -25 50 -23 0 -25 3 -25 50 0 47 -2 50
-25 50 -23 0 -25 -3 -25 -50 0 -47 -2 -50 -25 -50 -20 0 -25 5 -25 25 0 20 -5
25 -25 25 -20 0 -25 5 -25 25 0 20 -5 25 -25 25 -20 0 -25 5 -25 25 0 20 -5
25 -25 25 -20 0 -25 5 -25 25 0 23 -3 25 -50 25 -47 0 -50 2 -50 25 0 24 -3
25 -55 25 -54 0 -55 0 -55 30 0 29 -1 30 -50 30 -47 0 -50 2 -50 25 l0 25
-340 0 c-296 0 -340 -2 -340 -15 0 -12 -16 -15 -80 -15 -64 0 -80 -3 -80 -15
0 -9 -9 -15 -25 -15 -20 0 -25 -5 -25 -25 0 -20 5 -25 25 -25 16 0 25 6 25 15
0 12 16 15 80 15 47 0 80 4 80 10 0 6 118 10 335 10 l335 0 0 -25 0 -25 -340
0 -340 0 0 -25 c0 -24 -2 -25 -75 -25 -73 0 -75 -1 -75 -25 0 -23 -3 -25 -50
-25 -47 0 -50 -2 -50 -25 0 -20 -5 -25 -25 -25 -20 0 -25 -5 -25 -25 0 -20 -5
-25 -25 -25 -20 0 -25 -5 -25 -25 0 -20 -5 -25 -25 -25 -20 0 -25 -5 -25 -25
0 -20 -5 -25 -25 -25 -20 0 -25 -5 -25 -25 0 -20 -5 -25 -25 -25 -20 0 -25 -5
-25 -25 0 -20 -5 -25 -25 -25 -20 0 -25 5 -25 25 0 20 5 25 25 25 20 0 25 5
25 25 0 20 5 25 25 25 20 0 25 5 25 25 0 20 5 25 25 25 23 0 25 3 25 50 0 47
2 50 25 50 20 0 25 5 25 25 0 20 5 25 25 25 20 0 25 5 25 25 0 23 3 25 50 25
47 0 50 2 50 25 0 20 -5 25 -25 25 -20 0 -25 5 -25 25 0 20 5 25 25 25 20 0
25 5 25 25 0 23 -3 25 -50 25 l-50 0 0 -50 c0 -47 -2 -50 -25 -50 -20 0 -25
-5 -25 -25 0 -20 -5 -25 -25 -25 -20 0 -25 -5 -25 -25 0 -20 -5 -25 -25 -25
-20 0 -25 -5 -25 -25 0 -20 -5 -25 -25 -25 -20 0 -25 -5 -25 -25 0 -20 -5 -25
-25 -25 -20 0 -25 5 -25 25 0 20 5 25 25 25 20 0 25 5 25 25 0 20 5 25 25 25
20 0 25 5 25 25 0 20 5 25 25 25 20 0 25 5 25 25 0 20 5 25 25 25 20 0 25 5
25 25 0 20 -5 25 -25 25 -20 0 -25 5 -25 25 0 20 -5 25 -25 25 -20 0 -25 5
-25 25 0 20 -5 25 -25 25 -20 0 -25 5 -25 25 0 20 5 25 25 25 24 0 25 2 25 75
0 73 1 75 25 75 20 0 25 5 25 25 0 20 5 25 25 25 20 0 25 5 25 25 0 23 3 25
50 25 47 0 50 2 50 25 0 20 5 25 25 25 20 0 25 5 25 25 0 20 5 25 25 25 20 0
25 5 25 25 0 20 5 25 25 25 20 0 25 -5 25 -25 0 -23 3 -25 50 -25 47 0 50 2
50 25 0 20 5 25 25 25 20 0 25 5 25 25 l0 25 100 0 100 0 0 -25z m-750 -350
c0 -20 -5 -25 -25 -25 -20 0 -25 -5 -25 -25 0 -20 -5 -25 -25 -25 -20 0 -25
-5 -25 -25 0 -20 -5 -25 -25 -25 -20 0 -25 5 -25 25 0 20 5 25 25 25 20 0 25
5 25 25 0 20 5 25 25 25 20 0 25 5 25 25 0 20 5 25 25 25 20 0 25 -5 25 -25z
m1200 -450 c0 -24 2 -25 75 -25 73 0 75 -1 75 -25 0 -20 5 -25 25 -25 20 0 25
-5 25 -25 0 -20 5 -25 25 -25 20 0 25 -5 25 -25 0 -20 5 -25 25 -25 20 0 25
-5 25 -25 0 -20 5 -25 25 -25 20 0 25 -5 25 -25 0 -20 5 -25 25 -25 23 0 25
-3 25 -50 0 -47 2 -50 25 -50 l25 0 0 -250 0 -250 -25 0 c-23 0 -25 -3 -25
-50 0 -47 -2 -50 -25 -50 -20 0 -25 -5 -25 -25 0 -20 -5 -25 -25 -25 -20 0
-25 -5 -25 -25 0 -20 -5 -25 -25 -25 -20 0 -25 -5 -25 -25 0 -20 -5 -25 -25
-25 -20 0 -25 -5 -25 -25 0 -20 -5 -25 -25 -25 -20 0 -25 -5 -25 -25 0 -23 -3
-25 -50 -25 -47 0 -50 -2 -50 -25 0 -23 -3 -25 -50 -25 -47 0 -50 -2 -50 -25
0 -23 -3 -25 -50 -25 -47 0 -50 -2 -50 -25 l0 -25 -200 0 -200 0 0 25 c0 24
-2 25 -75 25 -73 0 -75 1 -75 25 0 23 -3 25 -50 25 -47 0 -50 2 -50 25 0 23
-3 25 -50 25 -46 0 -50 2 -50 24 0 22 -5 25 -42 28 -33 2 -45 8 -53 25 -5 12
-19 23 -30 25 -12 2 -21 12 -23 26 -3 16 -10 22 -28 22 -22 0 -24 4 -24 50 0
47 -2 50 -25 50 -23 0 -25 3 -25 50 l0 50 50 0 c47 0 50 2 50 25 0 23 3 25 50
25 47 0 50 2 50 25 0 20 5 25 25 25 20 0 25 5 25 25 0 20 5 25 25 25 20 0 25
5 25 25 0 20 5 25 25 25 20 0 25 5 25 25 0 20 5 25 25 25 20 0 25 5 25 25 0
20 5 25 25 25 20 0 25 5 25 25 0 20 5 25 25 25 20 0 25 5 25 25 0 20 5 25 25
25 20 0 25 5 25 25 0 20 5 25 25 25 20 0 25 5 25 25 0 20 5 25 25 25 20 0 25
5 25 25 0 20 5 25 25 25 20 0 25 5 25 25 0 20 5 25 25 25 23 0 25 3 25 50 0
47 2 50 25 50 23 0 25 3 25 50 0 47 2 50 25 50 20 0 25 5 25 25 0 20 5 25 25
25 20 0 25 5 25 25 l0 25 125 0 125 0 0 -25z m-1350 -50 c0 -20 -5 -25 -25
-25 -20 0 -25 5 -25 25 0 20 5 25 25 25 20 0 25 -5 25 -25z m1900 -55 c0 -15
-7 -20 -25 -20 -18 0 -25 5 -25 20 0 15 7 20 25 20 18 0 25 -5 25 -20z m-1800
-770 c0 -47 -2 -50 -25 -50 -23 0 -25 3 -25 50 0 47 2 50 25 50 23 0 25 -3 25
-50z m100 -225 c0 -20 5 -25 25 -25 20 0 25 -5 25 -25 0 -20 5 -25 25 -25 20
0 25 -5 25 -25 0 -20 5 -25 25 -25 20 0 25 -5 25 -25 0 -20 -5 -25 -25 -25
-20 0 -25 5 -25 25 0 20 -5 25 -25 25 -20 0 -25 5 -25 25 0 23 -3 25 -50 25
-47 0 -50 2 -50 25 0 20 -5 25 -25 25 -20 0 -25 5 -25 25 0 23 3 25 50 25 47
0 50 -2 50 -25z m0 -150 c0 -20 -5 -25 -25 -25 -20 0 -25 5 -25 25 0 20 5 25
25 25 20 0 25 -5 25 -25z m250 -50 c0 -20 -5 -25 -25 -25 -20 0 -25 5 -25 25
0 20 5 25 25 25 20 0 25 -5 25 -25z m100 -50 c0 -20 -5 -25 -25 -25 -20 0 -25
5 -25 25 0 20 5 25 25 25 20 0 25 -5 25 -25z m-900 -1050 c0 -20 -5 -25 -25
-25 -20 0 -25 5 -25 25 0 20 5 25 25 25 20 0 25 -5 25 -25z m100 -140 c0 -9 9
-15 25 -15 21 0 25 -5 25 -30 0 -25 4 -30 25 -30 21 0 25 -5 25 -30 0 -25 4
-30 25 -30 24 0 25 -2 25 -75 0 -73 1 -75 25 -75 24 0 25 -2 25 -75 0 -73 1
-75 25 -75 l25 0 -1 -132 c0 -73 -3 -127 -6 -120 -2 6 -18 12 -34 12 -16 0
-29 4 -29 9 0 14 -74 25 -78 12 -5 -14 -52 -15 -52 -1 0 6 -11 10 -25 10 -14
0 -25 5 -25 10 0 6 -11 10 -25 10 -16 0 -25 6 -25 15 0 8 -9 15 -20 15 -13 0
-20 7 -20 20 0 11 -7 20 -15 20 -11 0 -15 11 -15 40 0 33 -3 40 -20 40 -15 0
-20 7 -20 25 0 20 -5 25 -25 25 -18 0 -25 5 -25 20 0 11 -4 20 -10 20 -5 0
-10 14 -10 30 0 20 -5 30 -15 30 -12 0 -15 15 -15 75 l0 75 -45 0 c-38 0 -45
3 -45 20 0 17 7 20 50 20 47 0 50 2 50 25 0 24 3 25 55 25 52 0 55 1 55 25 0
18 5 25 20 25 15 0 20 7 20 25 0 23 3 25 50 25 38 0 50 -4 50 -15z"/>
<path d="M2780 4575 c0 -20 -5 -25 -25 -25 -20 0 -25 -5 -25 -25 0 -20 5 -25
25 -25 20 0 25 5 25 25 0 20 5 25 25 25 20 0 25 5 25 25 0 20 -5 25 -25 25
-20 0 -25 -5 -25 -25z"/>
<path d="M2730 4425 c0 -20 5 -25 25 -25 20 0 25 5 25 25 0 20 -5 25 -25 25
-20 0 -25 -5 -25 -25z"/>
<path d="M3230 4400 c0 -5 5 -10 10 -10 6 0 10 5 10 10 0 6 -4 10 -10 10 -5 0
-10 -4 -10 -10z"/>
<path d="M3080 4350 l0 -50 -175 0 -175 0 0 -25 c0 -20 -5 -25 -25 -25 -20 0
-25 -5 -25 -25 0 -23 -3 -25 -50 -25 -47 0 -50 -2 -50 -25 0 -23 3 -25 50 -25
47 0 50 2 50 25 0 23 3 25 50 25 47 0 50 2 50 25 l0 25 350 0 350 0 0 -25 c0
-23 3 -25 50 -25 47 0 50 -2 50 -25 0 -23 3 -25 50 -25 47 0 50 -2 50 -25 0
-23 3 -25 50 -25 47 0 50 -2 50 -25 0 -20 5 -25 25 -25 20 0 25 -5 25 -25 0
-20 5 -25 25 -25 20 0 25 -5 25 -25 0 -20 5 -25 25 -25 20 0 25 -5 25 -25 0
-20 5 -25 25 -25 20 0 25 5 25 25 0 20 -5 25 -25 25 -20 0 -25 5 -25 25 0 20
-5 25 -25 25 -20 0 -25 5 -25 25 0 20 -5 25 -25 25 -20 0 -25 5 -25 25 0 20
-5 25 -25 25 -20 0 -25 5 -25 25 0 23 -3 25 -50 25 -47 0 -50 2 -50 25 0 23
-3 25 -50 25 -47 0 -50 2 -50 25 0 23 -3 25 -50 25 -47 0 -50 2 -50 25 l0 25
-175 0 -175 0 0 50 c0 47 -2 50 -25 50 -23 0 -25 -3 -25 -50z"/>
<path d="M2330 4225 c0 -20 5 -25 25 -25 20 0 25 -5 25 -25 0 -20 5 -25 25
-25 20 0 25 5 25 25 0 20 -5 25 -25 25 -20 0 -25 5 -25 25 0 20 -5 25 -25 25
-20 0 -25 -5 -25 -25z"/>
<path d="M3390 3490 c0 -13 7 -20 20 -20 13 0 20 7 20 20 0 13 -7 20 -20 20
-13 0 -20 -7 -20 -20z"/>
<path d="M3270 3370 c0 -13 7 -20 20 -20 13 0 20 7 20 20 0 13 -7 20 -20 20
-13 0 -20 -7 -20 -20z"/>
<path d="M3510 3370 c0 -13 7 -20 20 -20 13 0 20 7 20 20 0 13 -7 20 -20 20
-13 0 -20 -7 -20 -20z"/>
<path d="M3390 3255 c0 -8 9 -15 20 -15 11 0 20 7 20 15 0 8 -9 15 -20 15 -11
0 -20 -7 -20 -15z"/>
<path d="M3550 3145 c0 -20 5 -25 25 -25 20 0 25 5 25 25 0 20 -5 25 -25 25
-20 0 -25 -5 -25 -25z"/>
<path d="M1980 3000 c0 -47 2 -50 25 -50 23 0 25 3 25 50 0 47 -2 50 -25 50
-23 0 -25 -3 -25 -50z"/>
<path d="M2030 2875 c0 -20 5 -25 25 -25 20 0 25 5 25 25 0 20 -5 25 -25 25
-20 0 -25 -5 -25 -25z"/>
<path d="M1030 2725 c0 -23 3 -25 50 -25 47 0 50 -2 50 -25 0 -20 5 -25 25
-25 20 0 25 5 25 25 0 20 -5 25 -25 25 -20 0 -25 5 -25 25 0 23 -3 25 -50 25
-47 0 -50 -2 -50 -25z"/>
<path d="M1830 2625 c0 -20 -5 -25 -25 -25 -20 0 -25 -5 -25 -25 0 -20 5 -25
25 -25 20 0 25 5 25 25 0 20 5 25 25 25 20 0 25 5 25 25 0 20 -5 25 -25 25
-20 0 -25 -5 -25 -25z"/>
</g>
</svg>
