<svg width="421" height="311" viewBox="0 0 421 311" fill="none" xmlns="http://www.w3.org/2000/svg">
<path d="M227.12 16.1405C225.936 15.4296 224.587 15.0376 223.206 15.0026C221.825 14.9675 220.459 15.2906 219.24 15.9405L101 79.0003H31C26.7565 79.0003 22.6869 80.686 19.6863 83.6866C16.6857 86.6872 15 90.7568 15 95.0003V199C15 203.243 16.6857 207.313 19.6863 210.314C22.6869 213.314 26.7565 215 31 215H119C123.243 215 127.313 213.314 130.314 210.314C133.314 207.313 135 203.243 135 199V167C135.002 166.221 134.887 165.446 134.66 164.7L112.54 91.0003L215 36.3304V159H199V151C199 148.878 198.157 146.844 196.657 145.343C195.157 143.843 193.122 143 191 143C188.878 143 186.843 143.843 185.343 145.343C183.843 146.844 183 148.878 183 151V159C183 163.244 184.686 167.313 187.686 170.314C190.687 173.314 194.757 175 199 175H215C219.243 175 223.313 173.314 226.314 170.314C229.314 167.313 231 163.244 231 159V23.0004C231 21.6193 230.643 20.2616 229.963 19.0595C229.283 17.8574 228.304 16.8517 227.12 16.1405ZM97.05 95.0003L116.25 159H63V95.0003H97.05ZM47 95.0003V159H31V95.0003H47ZM31 199V175H119V199H31Z" fill="#1F1F1F"/>
<path d="M389.312 62.5625H183.688C175.507 62.5625 167.662 65.822 161.878 71.6239C156.093 77.4258 152.844 85.2949 152.844 93.5V237.875C152.844 246.08 156.093 253.949 161.878 259.751C167.662 265.553 175.507 268.812 183.688 268.812H276.219V289.438H245.375C242.648 289.438 240.033 290.524 238.105 292.458C236.177 294.392 235.094 297.015 235.094 299.75C235.094 302.485 236.177 305.108 238.105 307.042C240.033 308.976 242.648 310.062 245.375 310.062H327.625C330.352 310.062 332.967 308.976 334.895 307.042C336.823 305.108 337.906 302.485 337.906 299.75C337.906 297.015 336.823 294.392 334.895 292.458C332.967 290.524 330.352 289.438 327.625 289.438H296.781V268.812H389.312C397.493 268.812 405.338 265.553 411.122 259.751C416.907 253.949 420.156 246.08 420.156 237.875V93.5C420.156 85.2949 416.907 77.4258 411.122 71.6239C405.338 65.822 397.493 62.5625 389.312 62.5625ZM183.688 83.1875H389.312C392.039 83.1875 394.654 84.274 396.582 86.208C398.511 88.1419 399.594 90.765 399.594 93.5V196.625H173.406V93.5C173.406 90.765 174.489 88.1419 176.418 86.208C178.346 84.274 180.961 83.1875 183.688 83.1875ZM389.312 248.188H183.688C180.961 248.188 178.346 247.101 176.418 245.167C174.489 243.233 173.406 240.61 173.406 237.875V217.25H399.594V237.875C399.594 240.61 398.511 243.233 396.582 245.167C394.654 247.101 392.039 248.188 389.312 248.188Z" fill="#1F1F1F"/>
</svg>
